<svg viewBox="0 0 190.0112 43.0214" fill="none" xmlns="http://www.w3.org/2000/svg" xmlns:xlink="http://www.w3.org/1999/xlink" x="0" y="0"><defs><mask id="mask1_3_77" style="mask-type:alpha" maskUnits="userSpaceOnUse" x="2.5" y="11" width="27" height="20">
<g id="Group_5">
<path id="Vector_10" d="M23.3635,18.8h-1.5051c-0.4469,-1.77 -1.3704,-3.36 -2.6654,-4.62c-1.295,-1.25 -2.9097,-2.11 -4.6606,-2.48c-1.7509,-0.36 -3.5678,-0.22 -5.2443,0.41c-1.6764,0.63 -3.1451,1.73 -4.2393,3.17c-1.0941,1.43 -1.7698,3.16 -1.9503,4.96c-0.1805,1.81 0.1415,3.64 0.9294,5.27c0.7879,1.63 2.0101,3.01 3.5277,3.97c1.5176,0.96 3.2697,1.47 5.0573,1.47h10.7506c1.584,0 3.1031,-0.64 4.2232,-1.78c1.1201,-1.14 1.7494,-2.69 1.7494,-4.3c0,-1.61 -0.6293,-3.16 -1.7494,-4.29c-1.1201,-1.14 -2.6392,-1.78 -4.2232,-1.78z" fill="#136ACD"/>
</g>
</mask><filter id="filter2_d_3_77" x="-17.7416" y="9.170000000000073" width="53.7429" height="29.2108" filterUnits="userSpaceOnUse" color-interpolation-filters="sRGB">
<feFlood flood-opacity="0" result="BackgroundImageFix"/>
<feColorMatrix in="SourceAlpha" type="matrix" values="0 0 0 0 0 0 0 0 0 0 0 0 0 0 0 0 0 0 127 0" result="hardAlpha"/>
<feOffset/>
<feGaussianBlur stdDeviation="1.16964"/>
<feColorMatrix type="matrix" values="0 0 0 0 0 0 0 0 0 0 0 0 0 0 0 0 0 0 0.25 0"/>
<feBlend mode="normal" in2="BackgroundImageFix" result="effect1_dropShadow_3_77"/>
<feBlend mode="normal" in="SourceGraphic" in2="effect1_dropShadow_3_77" result="shape"/>
</filter><filter id="filter3_d_3_77" x="-20.081200000000003" y="7.190000000000055" width="58.4215" height="33.8894" filterUnits="userSpaceOnUse" color-interpolation-filters="sRGB">
<feFlood flood-opacity="0" result="BackgroundImageFix"/>
<feColorMatrix in="SourceAlpha" type="matrix" values="0 0 0 0 0 0 0 0 0 0 0 0 0 0 0 0 0 0 127 0" result="hardAlpha"/>
<feOffset dy="-3.50893"/>
<feGaussianBlur stdDeviation="2.33929"/>
<feColorMatrix type="matrix" values="0 0 0 0 0 0 0 0 0 0 0 0 0 0 0 0 0 0 0.15 0"/>
<feBlend mode="normal" in2="BackgroundImageFix" result="effect1_dropShadow_3_77"/>
<feBlend mode="normal" in="SourceGraphic" in2="effect1_dropShadow_3_77" result="shape"/>
</filter><clipPath id="clip1_3_77">
<rect width="190.011" height="43.0214" fill="white" transform="translate(0, 0)"/>
</clipPath></defs><g id="servcraft-logo-dark (1) 2" clip-path="url(#clip1_3_77)">
<path id="Vector_7" d="M40.0219,29.03c2.1682,2.17 5.3346,3.65 9.7401,3.65c6.195,0 9.189,-3.17 9.189,-7.37c0,-5.09 -4.818,-6.23 -8.604,-7.09c-2.65,-0.62 -4.5775,-1.1 -4.5775,-2.65c0,-1.37 1.1702,-2.34 3.3725,-2.34c2.237,0 4.716,0.8 6.574,2.52l2.719,-3.58c-2.272,-2.1 -5.3,-3.2 -8.948,-3.2c-5.4039,0 -8.708,3.09 -8.708,6.91c0,5.13 4.8184,6.16 8.57,7.02c2.65,0.62 4.646,1.21 4.646,2.93c0,1.31 -1.308,2.58 -3.992,2.58c-3.1666,0 -5.679,-1.41 -7.2966,-3.1zM61.072,23.94c0,5.33 3.82,8.74 8.88,8.74c2.581,0 5.162,-0.76 6.848,-2.31l-1.927,-2.82c-1.067,1.03 -2.891,1.65 -4.44,1.65c-2.822,0 -4.509,-1.75 -4.784,-3.85h12.356v-0.97c0,-5.43 -3.373,-9.15 -8.329,-9.15c-5.059,0 -8.604,3.89 -8.604,8.71zM69.676,18.71c2.891,0 3.992,2.1 4.096,3.68h-8.192c0.207,-1.65 1.377,-3.68 4.096,-3.68zM81.162,32.27h4.371v-10.98c0.723,-1.07 2.65,-1.86 4.096,-1.86c0.482,0 0.895,0.03 1.204,0.1v-4.27c-2.065,0 -4.13,1.17 -5.3,2.65v-2.27h-4.371zM97.867,32.27h4.715l6.677,-16.63h-4.716l-4.336,11.57l-4.337,-11.57h-4.68z" fill="#136ACD"/>
<path id="Vector_8" d="M122.258,32.68c5.231,0 8.123,-2.79 9.774,-5.65l-4.199,-2.03c-0.963,1.9 -3.028,3.34 -5.575,3.34c-3.993,0 -7.021,-3.2 -7.021,-7.53c0,-4.34 3.028,-7.54 7.021,-7.54c2.547,0 4.612,1.48 5.575,3.34l4.199,-2.07c-1.617,-2.86 -4.543,-5.61 -9.774,-5.61c-6.711,0 -12.046,4.82 -12.046,11.88c0,7.05 5.335,11.87 12.046,11.87zM134.838,32.27h4.371v-10.98c0.723,-1.07 2.65,-1.86 4.096,-1.86c0.482,0 0.894,0.03 1.205,0.1v-4.27c-2.066,0 -4.131,1.17 -5.301,2.65v-2.27h-4.371zM157.221,32.27h4.372v-10.74c0,-4.79 -3.477,-6.3 -7.263,-6.3c-2.616,0 -5.231,0.83 -7.262,2.62l1.652,2.92c1.412,-1.31 3.064,-1.96 4.853,-1.96c2.203,0 3.648,1.1 3.648,2.79v2.3c-1.101,-1.34 -3.063,-2.03 -5.265,-2.03c-2.651,0 -5.782,1.41 -5.782,5.3c0,3.72 3.131,5.51 5.782,5.51c2.168,0 4.13,-0.79 5.265,-2.13zM157.221,28.27c-0.722,0.97 -2.099,1.45 -3.51,1.45c-1.721,0 -3.132,-0.9 -3.132,-2.44c0,-1.59 1.411,-2.52 3.132,-2.52c1.411,0 2.788,0.48 3.51,1.45zM166.891,32.27h4.406v-12.81h3.373v-3.82h-3.373v-0.82c0,-1.59 0.826,-2.41 2.065,-2.41c0.516,0 1.032,0.1 1.411,0.34l0.895,-3.1c-0.792,-0.41 -1.927,-0.68 -3.166,-0.68c-3.27,0 -5.611,2.16 -5.611,5.78v0.89h-2.753v3.82h2.753zM182.763,32.68c1.824,0 2.994,-0.48 3.648,-1.07l-0.929,-3.3c-0.241,0.24 -0.86,0.48 -1.515,0.48c-0.963,0 -1.514,-0.79 -1.514,-1.82v-7.51h3.373v-3.82h-3.373v-4.54h-4.405v4.54h-2.754v3.82h2.754v8.68c0,2.96 1.652,4.54 4.715,4.54z" fill="#1C252C"/>
<path id="Vector_9" d="M23.4858,18.79h-1.5307c-0.4545,-1.76 -1.3937,-3.35 -2.7108,-4.61c-1.3172,-1.25 -2.9594,-2.11 -4.7402,-2.48c-1.7807,-0.36 -3.6286,-0.22 -5.3336,0.41c-1.7051,0.63 -3.1989,1.73 -4.3117,3.16c-1.1128,1.44 -1.8,3.16 -1.9836,4.97c-0.1835,1.81 0.144,3.64 0.9453,5.27c0.8013,1.63 2.0443,3 3.5878,3.96c1.5435,0.97 3.3255,1.47 5.1436,1.47h10.9339c1.6111,0 3.1561,-0.64 4.2953,-1.78c1.1392,-1.14 1.7792,-2.68 1.7792,-4.29c0,-1.61 -0.64,-3.16 -1.7792,-4.3c-1.1392,-1.14 -2.6842,-1.78 -4.2953,-1.78z" fill="#136ACD" stroke="#136ACD" stroke-width="5.61429" stroke-linecap="round" stroke-linejoin="round"/>
<g id="Mask group_2">
<mask id="mask1_3_77" style="mask-type:alpha" maskUnits="userSpaceOnUse" x="55" y="1063" width="27" height="20">
<g id="Group_5">
<path id="Vector_10" d="M75.8635 1070.8H74.3584C73.9115 1069.03 72.988 1067.44 71.693 1066.18C70.398 1064.93 68.7833 1064.07 67.0324 1063.7C65.2815 1063.34 63.4646 1063.48 61.7881 1064.11C60.1117 1064.74 58.643 1065.84 57.5488 1067.28C56.4547 1068.71 55.779 1070.44 55.5985 1072.24C55.418 1074.05 55.74 1075.88 56.5279 1077.51C57.3158 1079.14 58.538 1080.52 60.0556 1081.48C61.5732 1082.44 63.3253 1082.95 65.1129 1082.95H75.8635C77.4475 1082.95 78.9666 1082.31 80.0867 1081.17C81.2068 1080.03 81.8361 1078.48 81.8361 1076.87C81.8361 1075.26 81.2068 1073.71 80.0867 1072.58C78.9666 1071.44 77.4475 1070.8 75.8635 1070.8Z" fill="#136ACD"/>
</g>
</mask>
<g mask="url(#mask1_3_77)">
<g id="Group_6">
<g id="Group_7" filter="url(#filter2_d_3_77)">
<path id="Vector_11" d="M-15.4023,13.3l1.3628,-0.63c1.3629,-0.67 4.0887,-1.86 6.8145,-0.64c2.7258,1.27 5.4516,5.06 8.1774,7.58c2.7258,2.57 5.4516,3.76 8.1774,4.43c2.7258,0.63 5.4516,0.63 8.1774,-0.64c2.7257,-1.22 5.4516,-3.82 8.1773,-3.79c2.7259,-0.03 5.4516,2.57 6.8146,3.79l1.3628,1.27v11.37h-1.3628c-1.363,0 -4.0887,0 -6.8146,0c-2.7257,0 -5.4516,0 -8.1773,0c-2.7258,0 -5.4516,0 -8.1774,0c-2.7258,0 -5.4516,0 -8.1774,0c-2.7258,0 -5.4516,0 -8.1774,0c-2.7258,0 -5.4516,0 -6.8145,0h-1.3628z" fill="#167DF2"/>
</g>
<g id="Group_8" opacity="0.8" filter="url(#filter3_d_3_77)">
<path id="Vector_12" d="M-15.4026,17.17l1.3629,-0.62c1.3629,-0.68 4.0887,-1.86 6.8145,-0.64c2.7258,1.26 5.4516,5.05 8.1774,7.58c2.7258,2.56 5.4516,3.75 8.1774,4.42c2.7258,0.63 5.4516,0.63 8.1773,-0.64c2.7259,-1.22 5.4516,-3.82 8.1774,-3.78c2.7258,-0.04 5.4516,2.56 6.8145,3.78l1.3629,1.27v11.37h-1.3629c-1.3629,0 -4.0887,0 -6.8145,0c-2.7258,0 -5.4515,0 -8.1774,0c-2.7257,0 -5.4515,0 -8.1773,0c-2.7258,0 -5.4516,0 -8.1774,0c-2.7258,0 -5.4516,0 -8.1774,0c-2.7258,0 -5.4516,0 -6.8145,0h-1.3629z" fill="#2E8FFF"/>
</g>
</g>
</g>
</g>
</g></svg>