<svg viewBox="0 0 190.0112 43.0214" fill="none" xmlns="http://www.w3.org/2000/svg" xmlns:xlink="http://www.w3.org/1999/xlink" x="0" y="0"><defs><mask id="mask0_3_77" style="mask-type:alpha" maskUnits="userSpaceOnUse" x="3.009999999999991" y="11" width="27" height="20">
<g id="Group">
<path id="Vector_4" d="M23.363,18.796h-1.505c-0.446,-1.761 -1.37,-3.359 -2.665,-4.613c-1.295,-1.253 -2.91,-2.112 -4.661,-2.479c-1.751,-0.367 -3.567,-0.226 -5.244,0.405c-1.676,0.631 -3.145,1.729 -4.239,3.167c-1.094,1.438 -1.77,3.159 -1.95,4.969c-0.181,1.809 0.141,3.633 0.929,5.266c0.788,1.632 2.01,3.007 3.528,3.968c1.517,0.961 3.269,1.47 5.057,1.469h10.75c1.585,0 3.104,-0.64 4.224,-1.78c1.12,-1.139 1.749,-2.685 1.749,-4.296c0,-1.612 -0.629,-3.157 -1.749,-4.297c-1.12,-1.139 -2.639,-1.779 -4.224,-1.779z" fill="#136ACD"/>
</g>
</mask><filter id="filter0_d_3_77" x="-17.741999999999962" y="9.164999999999964" width="53.7429" height="29.2108" filterUnits="userSpaceOnUse" color-interpolation-filters="sRGB">
<feFlood flood-opacity="0" result="BackgroundImageFix"/>
<feColorMatrix in="SourceAlpha" type="matrix" values="0 0 0 0 0 0 0 0 0 0 0 0 0 0 0 0 0 0 127 0" result="hardAlpha"/>
<feOffset/>
<feGaussianBlur stdDeviation="1.16964"/>
<feColorMatrix type="matrix" values="0 0 0 0 0 0 0 0 0 0 0 0 0 0 0 0 0 0 0.25 0"/>
<feBlend mode="normal" in2="BackgroundImageFix" result="effect1_dropShadow_3_77"/>
<feBlend mode="normal" in="SourceGraphic" in2="effect1_dropShadow_3_77" result="shape"/>
</filter><filter id="filter1_d_3_77" x="-20.081000000000017" y="7.190000000000055" width="58.4215" height="33.8894" filterUnits="userSpaceOnUse" color-interpolation-filters="sRGB">
<feFlood flood-opacity="0" result="BackgroundImageFix"/>
<feColorMatrix in="SourceAlpha" type="matrix" values="0 0 0 0 0 0 0 0 0 0 0 0 0 0 0 0 0 0 127 0" result="hardAlpha"/>
<feOffset dy="-3.50893"/>
<feGaussianBlur stdDeviation="2.33929"/>
<feColorMatrix type="matrix" values="0 0 0 0 0 0 0 0 0 0 0 0 0 0 0 0 0 0 0.15 0"/>
<feBlend mode="normal" in2="BackgroundImageFix" result="effect1_dropShadow_3_77"/>
<feBlend mode="normal" in="SourceGraphic" in2="effect1_dropShadow_3_77" result="shape"/>
</filter></defs><g id="servcraft-logo-dark (1) 1">
<path id="Vector" d="M40.022,29.031c2.168,2.168 5.334,3.648 9.74,3.648c6.195,0 9.189,-3.166 9.189,-7.365c0,-5.094 -4.818,-6.23 -8.604,-7.09c-2.65,-0.619 -4.578,-1.101 -4.578,-2.65c0,-1.377 1.171,-2.34 3.373,-2.34c2.237,0 4.716,0.791 6.574,2.512l2.719,-3.579c-2.272,-2.1 -5.3,-3.201 -8.948,-3.201c-5.404,0 -8.708,3.097 -8.708,6.918c0,5.128 4.818,6.16 8.57,7.021c2.65,0.619 4.646,1.204 4.646,2.925c0,1.308 -1.308,2.581 -3.992,2.581c-3.167,0 -5.679,-1.411 -7.297,-3.097zM61.072,23.937c0,5.335 3.82,8.742 8.88,8.742c2.581,0 5.162,-0.757 6.848,-2.306l-1.927,-2.822c-1.067,1.033 -2.891,1.652 -4.44,1.652c-2.822,0 -4.509,-1.755 -4.784,-3.855h12.356v-0.963c0,-5.438 -3.373,-9.155 -8.329,-9.155c-5.059,0 -8.604,3.889 -8.604,8.707zM69.676,18.706c2.891,0 3.992,2.099 4.096,3.682h-8.192c0.207,-1.652 1.377,-3.682 4.096,-3.682zM81.162,32.266h4.371v-10.979c0.723,-1.067 2.65,-1.858 4.095,-1.858c0.483,0 0.896,0.034 1.205,0.103v-4.268c-2.065,0 -4.13,1.17 -5.3,2.65v-2.271h-4.371zM97.866,32.266h4.716l6.677,-16.623h-4.716l-4.336,11.564l-4.337,-11.564h-4.68z" fill="#136ACD"/>
<path id="Vector_2" d="M122.258,32.679c5.231,0 8.123,-2.788 9.774,-5.644l-4.199,-2.031c-0.963,1.893 -3.028,3.338 -5.575,3.338c-3.993,0 -7.021,-3.2 -7.021,-7.537c0,-4.337 3.028,-7.537 7.021,-7.537c2.547,0 4.612,1.48 5.575,3.338l4.199,-2.065c-1.617,-2.856 -4.543,-5.61 -9.774,-5.61c-6.711,0 -12.046,4.819 -12.046,11.874c0,7.056 5.335,11.874 12.046,11.874zM134.838,32.266h4.371v-10.979c0.723,-1.067 2.65,-1.859 4.096,-1.859c0.482,0 0.894,0.035 1.205,0.104v-4.268c-2.066,0 -4.131,1.17 -5.301,2.65v-2.272h-4.371zM157.221,32.266h4.372v-10.738c0,-4.784 -3.477,-6.299 -7.263,-6.299c-2.616,0 -5.231,0.826 -7.262,2.616l1.652,2.926c1.412,-1.308 3.064,-1.962 4.853,-1.962c2.203,0 3.648,1.101 3.648,2.788v2.306c-1.101,-1.343 -3.063,-2.031 -5.265,-2.031c-2.651,0 -5.782,1.411 -5.782,5.3c0,3.717 3.131,5.507 5.782,5.507c2.168,0 4.13,-0.792 5.265,-2.134zM157.221,28.274c-0.722,0.963 -2.099,1.445 -3.51,1.445c-1.721,0 -3.132,-0.895 -3.132,-2.444c0,-1.583 1.411,-2.512 3.132,-2.512c1.411,0 2.788,0.482 3.51,1.446zM166.891,32.266h4.406v-12.803h3.373v-3.821h-3.373v-0.826c0,-1.583 0.826,-2.409 2.065,-2.409c0.516,0 1.032,0.104 1.411,0.344l0.895,-3.097c-0.792,-0.413 -1.927,-0.688 -3.166,-0.688c-3.27,0 -5.611,2.168 -5.611,5.782v0.894h-2.753v3.821h2.753zM182.763,32.679c1.824,0 2.994,-0.482 3.648,-1.067l-0.929,-3.304c-0.241,0.241 -0.86,0.482 -1.515,0.482c-0.963,0 -1.514,-0.792 -1.514,-1.824v-7.503h3.373v-3.821h-3.373v-4.543h-4.405v4.543h-2.754v3.821h2.754v8.673c0,2.96 1.652,4.543 4.715,4.543z" fill="#1C252C"/>
<path id="Vector_3" d="M23.486,18.794h-1.531c-0.454,-1.761 -1.394,-3.358 -2.711,-4.612c-1.317,-1.253 -2.959,-2.111 -4.74,-2.478c-1.781,-0.367 -3.629,-0.226 -5.334,0.405c-1.705,0.631 -3.198,1.728 -4.311,3.166c-1.113,1.437 -1.8,3.158 -1.984,4.967c-0.183,1.809 0.144,3.633 0.945,5.265c0.802,1.632 2.045,3.007 3.588,3.967c1.544,0.961 3.326,1.47 5.144,1.469h10.934c1.611,0 3.156,-0.64 4.295,-1.78c1.139,-1.139 1.779,-2.684 1.779,-4.295c0,-1.611 -0.64,-3.156 -1.779,-4.295c-1.139,-1.139 -2.684,-1.779 -4.295,-1.779z" fill="#136ACD" stroke="#136ACD" stroke-width="5.61429" stroke-linecap="round" stroke-linejoin="round"/>
<g id="Mask group">
<mask id="mask0_3_77" style="mask-type:alpha" maskUnits="userSpaceOnUse" x="597" y="610" width="27" height="20">
<g id="Group">
<path id="Vector_4" d="M617.353 617.796H615.848C615.402 616.035 614.478 614.437 613.183 613.183C611.888 611.93 610.273 611.071 608.522 610.704C606.771 610.337 604.955 610.478 603.278 611.109C601.602 611.74 600.133 612.838 599.039 614.276C597.945 615.714 597.269 617.435 597.089 619.245C596.908 621.054 597.23 622.878 598.018 624.511C598.806 626.143 600.028 627.518 601.546 628.479C603.063 629.44 604.815 629.949 606.603 629.948H617.353C618.938 629.948 620.457 629.308 621.577 628.168C622.697 627.029 623.326 625.483 623.326 623.872C623.326 622.26 622.697 620.715 621.577 619.575C620.457 618.436 618.938 617.796 617.353 617.796Z" fill="#136ACD"/>
</g>
</mask>
<g mask="url(#mask0_3_77)">
<g id="Group_2">
<g id="Group_3" filter="url(#filter0_d_3_77)">
<path id="Vector_5" d="M-15.402,13.3l1.363,-0.628c1.362,-0.675 4.088,-1.859 6.814,-0.639c2.726,1.267 5.452,5.056 8.177,7.579c2.726,2.569 5.452,3.753 8.178,4.428c2.726,0.628 5.451,0.628 8.177,-0.639c2.726,-1.22 5.452,-3.825 8.178,-3.789c2.725,-0.036 5.451,2.569 6.814,3.789l1.363,1.267v11.369h-1.363c-1.363,0 -4.089,0 -6.814,0c-2.726,0 -5.452,0 -8.178,0c-2.726,0 -5.451,0 -8.177,0c-2.726,0 -5.452,0 -8.178,0c-2.725,0 -5.451,0 -8.177,0c-2.726,0 -5.452,0 -6.814,0h-1.363z" fill="#167DF2"/>
</g>
<g id="Group_4" opacity="0.8" filter="url(#filter1_d_3_77)">
<path id="Vector_6" d="M-15.403,17.173l1.363,-0.627c1.363,-0.675 4.089,-1.86 6.815,-0.64c2.726,1.267 5.451,5.057 8.177,7.579c2.726,2.57 5.452,3.754 8.178,4.429c2.725,0.628 5.451,0.628 8.177,-0.639c2.726,-1.22 5.452,-3.825 8.177,-3.79c2.726,-0.035 5.452,2.57 6.815,3.79l1.363,1.267v11.368h-1.363c-1.363,0 -4.089,0 -6.815,0c-2.725,0 -5.451,0 -8.177,0c-2.726,0 -5.452,0 -8.177,0c-2.726,0 -5.452,0 -8.178,0c-2.726,0 -5.451,0 -8.177,0c-2.726,0 -5.452,0 -6.815,0h-1.363z" fill="#2E8FFF"/>
</g>
</g>
</g>
</g>
</g></svg>