<svg viewBox="0 0 1429.61 602.4427" fill="none" xmlns="http://www.w3.org/2000/svg" xmlns:xlink="http://www.w3.org/1999/xlink" id="48ed4c4e" x="0" y="0"><g id="Credify" data-node-id="179:737" clip-path="url(#clip0_179_737)"><g id="Frame 106" data-node-id="187:254"><g id="Frame 110" data-node-id="194:298"><g id="Frame 105" data-node-id="187:253"><g id="Frame 103" data-node-id="187:249"><g id="Frame 102" data-node-id="187:248"><g id="Frame 101" data-node-id="187:247"><g id="Frame 100" data-node-id="187:246"><g id="Frame 99" data-node-id="187:245"><g id="Frame 97" data-node-id="187:242"><g id="Frame 96" data-node-id="187:241"><g id="BG - lines" data-node-id="187:170"><line id="Line 12" data-node-id="187:172" x1="760.801" y1="0" x2="760.801" y2="601.993" stroke="#ECECEC" stroke-width="0.639443"/><line id="Line 5" data-node-id="187:174" y1="293.36299999999994" x2="1429.61" y2="293.36299999999994" stroke="#ECECEC" stroke-width="0.639443" x1="0"/><line id="Line 13" data-node-id="187:175" x1="466.657" y1="0" x2="466.657" y2="601.993" stroke="#ECECEC" stroke-width="0.639443"/><line id="Line 24" data-node-id="187:176" x1="1216.18" y1="0" x2="1216.18" y2="601.993" stroke="#ECECEC" stroke-width="0.639443"/><line id="Line 3" data-node-id="187:177" y1="145.38099999999997" x2="1429.61" y2="145.38200000000006" stroke="#ECECEC" stroke-width="0.639443" x1="0"/><line id="Line 14" data-node-id="187:178" x1="614.642" y1="0" x2="614.642" y2="601.993" stroke="#ECECEC" stroke-width="0.639443"/><line id="Line 25" data-node-id="187:179" x1="1364.16" y1="0" x2="1364.16" y2="601.993" stroke="#ECECEC" stroke-width="0.639443"/><line id="Line 6" data-node-id="187:180" y1="439.523" x2="1429.61" y2="439.523" stroke="#ECECEC" stroke-width="0.639443" x1="0"/><line id="Line 15" data-node-id="187:181" x1="320.498" y1="0" x2="320.498" y2="601.993" stroke="#ECECEC" stroke-width="0.639443"/><line id="Line 26" data-node-id="187:182" x1="1070.02" y1="0" x2="1070.02" y2="601.993" stroke="#ECECEC" stroke-width="0.639443"/><line id="Line 16" data-node-id="187:183" x1="84.8178" y1="0" x2="84.8177" y2="601.993" stroke="#ECECEC" stroke-width="0.639443"/><line id="Line 27" data-node-id="187:184" x1="834.337" y1="0" x2="834.337" y2="601.993" stroke="#ECECEC" stroke-width="0.639443"/><line id="Line 2" data-node-id="187:185" y1="72.30200000000002" x2="1429.61" y2="72.30200000000002" stroke="#ECECEC" stroke-width="0.639443" x1="0"/><line id="Line 17" data-node-id="187:186" x1="687.722" y1="0" x2="687.721" y2="601.993" stroke="#ECECEC" stroke-width="0.639443"/><line id="Line 7" data-node-id="187:188" y1="366.4430000000001" x2="1429.61" y2="366.4430000000001" stroke="#ECECEC" stroke-width="0.639443" x1="0"/><line id="Line 18" data-node-id="187:189" x1="393.577" y1="0" x2="393.577" y2="601.993" stroke="#ECECEC" stroke-width="0.639443"/><line id="Line 29" data-node-id="187:190" x1="1143.1" y1="0" x2="1143.1" y2="601.993" stroke="#ECECEC" stroke-width="0.639443"/><line id="Line 10" data-node-id="187:191" y1="602.1229999999999" x2="1429.61" y2="602.1229999999999" stroke="#ECECEC" stroke-width="0.639443" x1="0"/><line id="Line 19" data-node-id="187:192" x1="157.897" y1="0" x2="157.897" y2="601.993" stroke="#ECECEC" stroke-width="0.639443"/><line id="Line 30" data-node-id="187:193" x1="907.416" y1="0" x2="907.416" y2="601.993" stroke="#ECECEC" stroke-width="0.639443"/><line id="Line 4" data-node-id="187:194" y1="218.461" x2="1429.61" y2="218.461" stroke="#ECECEC" stroke-width="0.639443" x1="0"/><line id="Line 20" data-node-id="187:195" x1="541.563" y1="0" x2="541.563" y2="601.993" stroke="#ECECEC" stroke-width="0.639443"/><line id="Line 31" data-node-id="187:196" x1="1291.08" y1="0" x2="1291.08" y2="601.993" stroke="#ECECEC" stroke-width="0.639443"/><line id="Line 8" data-node-id="187:197" y1="512.603" x2="1429.61" y2="512.603" stroke="#ECECEC" stroke-width="0.639443" x1="0"/><line id="Line 21" data-node-id="187:198" x1="247.419" y1="0" x2="247.419" y2="601.993" stroke="#ECECEC" stroke-width="0.639443"/><line id="Line 32" data-node-id="187:199" x1="996.938" y1="0" x2="996.938" y2="601.993" stroke="#ECECEC" stroke-width="0.639443"/></g></g></g></g></g></g></g></g></g></g></g></g><defs><clipPath id="clip0_179_737">
<rect width="1512" height="11166" fill="white" x="0" y="-750.457"/>
</clipPath></defs></svg>